<?xml version="1.0" encoding="UTF-8"?>
<svg id="Layer_2" data-name="Layer 2" xmlns="http://www.w3.org/2000/svg" viewBox="0 0 451.57 451.57">
  <defs>
    <style>
      .cls-1, .cls-2 {
        stroke-width: 0px;
      }

      .cls-2 {
        fill: #fff;
      }
    </style>
  </defs>
  <g id="Layer_1-2" data-name="Layer 1">
    <g>
      <circle class="cls-1" cx="225.79" cy="225.79" r="225.79"/>
      <g>
        <path class="cls-2" d="m210.7,26.51c59.21-4.18,110.21,13.77,152.47,54.54,29.54,28.5,48.69,63.07,55.32,104.42h-28.83c-7.96-42.12-30.49-74.99-64.64-100.18-24.42-18.02-51.83-28.53-82.66-31.07-.08,1.66-.21,3.09-.22,4.52,0,4.81.19,9.62,0,14.42-.11,2.7.93,3.64,3.43,4.29,10.21,2.66,20.69,4.69,30.45,8.54,34.15,13.48,59,37.02,73.69,70.88,4.77,11,6.36,22.73,7.43,34.6,1.24,13.73,8.39,20.22,22.26,20.39,12.82.16,25.65.03,38.47.03,1.25,0,2.5,0,4.1,0v28.18c-1.39.1-2.32.21-3.25.22-10.15.04-20.3.03-30.45.11-9.53.07-17.15-3.62-22.99-11.18-3.2-4.14-6.52-8.18-9.96-12.12-7.41-8.49-16.69-14.2-27.26-17.92-.89-.31-1.77-.64-2.77-1,4.55-22.55-3.92-40.95-18.07-57.44-15.2-17.71-34.5-28.63-57.13-33.88-7.32-1.7-14.4-4.13-20.68-8.36-11.82-7.97-18.74-18.7-18.63-33.41.09-11.86-.04-23.72-.07-35.58,0-.94,0-1.88,0-2.97Z"/>
        <path class="cls-2" d="m29.66,212.14c12.31,0,24.17-.33,36.01.12,7.62.29,13.7,4.45,18.61,10.18,3.75,4.38,7.24,8.98,11.1,13.27,7.98,8.86,18.01,14.6,29.16,18.54.81.28,1.61.56,2.41.87.18.07.32.27.68.59-2.06,6.93-2.78,14.11-1.15,21.35,3.35,14.82,11.15,27.12,21.7,37.83,14.01,14.22,30.8,23.52,50.21,28.02,13.3,3.09,25.37,8.27,34.37,19.06,5.73,6.87,9.14,14.77,9.33,23.7.27,12.6.07,25.22.06,37.82,0,.41-.16.81-.24,1.19-108.08,10.91-195.37-70.64-207.63-157.23h27.48c3.2,10.05,5.61,20.18,9.58,29.65,16.96,40.48,46.07,69.25,85.9,87.35,15.69,7.13,32.11,11.54,49.31,12.89,4.25.33,4.26.28,4.27-4.04.01-4.59-.15-9.2.07-13.78.16-3.46-1.46-5.15-4.58-5.85-3.12-.7-6.26-1.36-9.38-2.08-28.73-6.68-53.78-19.81-73.48-42.19-16.7-18.97-27.09-40.74-29.2-66.2-.95-11.5-7.01-19.3-16.67-21.9-2.43-.65-5.07-.78-7.61-.79-12.39-.04-24.79-.02-37.19.11-2.29.02-3.23-.51-3.19-3,.13-8.41.05-16.82.05-25.48Z"/>
        <path class="cls-2" d="m195.43,108.39c-3.02.94-5.67,1.63-8.22,2.57-23.81,8.78-42,24.18-54.31,46.39-3.61,6.51-5.85,13.56-6.56,20.95-1.5,15.66,8.13,28.4,24.16,31.65,4.97,1.01,10.19,1.27,15.28,1.13,11.8-.32,22.54,2.7,32.64,8.71,17.52,10.43,35.17,20.65,52.71,31.06,9.81,5.82,17.36,13.71,20.03,25.1,3.82,16.29-1.83,29.83-13.94,40.53-24.08,21.27-65.38,12.27-75.97-20.58-2.38-7.37-1.98-14.92-1.61-22.89,7.94,0,15.71-.09,23.47.07,1.95.04,3.89.89,5.87,1.38-3.69,12.68,1.53,22.87,12.51,25.68,10.87,2.78,22.1-4.86,21.56-15.09-.16-2.92-1.82-6.12-3.69-8.48-1.85-2.33-4.69-4.02-7.35-5.55-14.25-8.2-28.64-16.16-42.86-24.41-8.19-4.75-16.8-7.05-26.3-6.62-12.48.57-24.37-1.85-35.65-7.48-20.38-10.15-33.11-34.05-29.98-56.62,2.37-17.08,9.99-31.82,19.96-45.57,15.11-20.83,34.83-35.59,58.74-44.87,1.37-.53,2.77-.97,4.45-1.55,2.07,9.96,7,17.97,15.08,24.46Z"/>
        <path class="cls-2" d="m243.24,178.02c.61-3.76,1.63-7.29,1.66-10.83.05-8.26-8.21-16.17-17.18-16.93-8.57-.73-16.55,5.01-18.26,13.28-1.21,5.85,1.33,10.32,6,13.44,5.58,3.74,11.42,7.1,17.2,10.53,9.65,5.71,19.42,11.22,29,17.03,8.18,4.96,16.86,7.3,26.48,7.25,7.65-.04,15.49.07,22.91,1.65,28.17,6.01,47.36,34.61,43.17,63.11-3.69,25.09-16.56,44.93-34.77,61.81-13.36,12.38-28.59,21.57-46.06,26.92-.49.15-.98.29-1.8.54-1.06-10.01-6.08-17.74-13.36-24.69,2.07-.58,3.69-.96,5.26-1.49,27.78-9.37,48.43-26.55,59.24-54.36,2.91-7.47,4.14-15.28,2.09-23.24-3.27-12.7-15.43-21.67-29.43-21.85-6.19-.08-12.4.09-18.58-.3-6.8-.44-13.25-2.54-19.11-5.99-20.06-11.8-40.19-23.49-60-35.7-12.95-7.99-19.75-19.91-17.79-35.38,2.56-20.14,14.38-32.87,33.74-38.32,26.22-7.38,53.21,9.04,58.4,35.56,1,5.13.32,10.6.23,15.91-.01.7-1.16,1.96-1.8,1.97-9.17.13-18.34.09-27.25.09Z"/>
        <path class="cls-2" d="m33.69,185.46C42.47,115.72,105.61,46.32,178.93,32.1c0,3.86,0,7.65,0,11.43,0,4.38-.13,8.77.09,13.14.12,2.31-.8,3.13-2.86,3.72-28.36,8.08-52.27,23.6-72.42,44.77-19.78,20.78-33.98,44.87-39.98,73.3-.48,2.27-.8,4.58-1.22,7h-28.86Z"/>
        <path class="cls-2" d="m273,420.23c0-9.36-.04-17.99.09-26.62.01-.67,1.16-1.67,1.97-1.92,48.68-15.18,83.41-46.15,104.54-92.41,4.58-10.02,7.58-20.61,9.14-31.82h29.11c-5.89,36.05-21.46,67.34-45.88,94.14-26.78,29.39-59.44,49.19-98.97,58.63Z"/>
      </g>
    </g>
  </g>
</svg>