<svg width="333" height="519" viewBox="0 0 333 519" fill="none" xmlns="http://www.w3.org/2000/svg">
<path d="M323.958 199.001L277.868 175.534C276.36 174.766 275.41 173.216 275.41 171.523V126.067C275.41 122.618 273.541 119.44 270.527 117.764L171.384 62.63C168.501 61.0268 164.992 61.0339 162.116 62.6487L71.7898 113.358C65.1691 117.075 65.3682 126.672 72.1372 130.111L328.038 260.127C329.549 260.894 330.5 262.445 330.5 264.139V441.754L171.353 353.478C168.491 351.89 165.012 351.888 162.148 353.472L2.5 441.761V217.492C2.5 214.185 5.94714 212.007 8.93324 213.428L56.5257 236.07C58.0936 236.816 59.0925 238.397 59.0925 240.134V337.862C59.0925 345.151 66.9612 349.724 73.2944 346.117L164.54 294.144C165.915 293.361 167.6 293.358 168.978 294.135L261.241 346.192C267.574 349.765 275.41 345.19 275.41 337.918V294.302C275.41 290.726 273.402 287.454 270.215 285.833L4.96053 150.97C3.45087 150.202 2.5 148.652 2.5 146.958V96.766C2.5 95.1318 3.38595 93.6261 4.81446 92.8324L164.56 4.0771C165.921 3.32094 167.576 3.322 168.936 4.0799L328.191 92.8291C329.616 93.6236 330.5 95.1278 330.5 96.76V194.99C330.5 198.35 326.952 200.525 323.958 199.001Z" fill="white" stroke="white" stroke-width="5"/>
<path d="M161.142 426.402L9.18937 511.021C6.18991 512.691 2.5 510.523 2.5 507.09V455.776L164.566 366.067C165.924 365.315 167.573 365.316 168.93 366.069L330.5 455.774V507.142C330.5 510.567 326.825 512.737 323.826 511.081L170.354 426.384C167.486 424.801 164.004 424.808 161.142 426.402Z" stroke="white" stroke-width="5"/>
</svg>
